<?xml version="1.0" standalone="no"?>
<!DOCTYPE svg PUBLIC "-//W3C//DTD SVG 20010904//EN"
 "http://www.w3.org/TR/2001/REC-SVG-20010904/DTD/svg10.dtd">
<svg version="1.0" xmlns="http://www.w3.org/2000/svg"
 width="48.000000pt" height="48.000000pt" viewBox="0 0 48.000000 48.000000"
 preserveAspectRatio="xMidYMid meet">

<g transform="translate(0.000000,48.000000) scale(0.100000,-0.100000)"
fill="#000000" stroke="none">
<path d="M323 430 c-12 -5 -26 -17 -31 -27 -8 -13 -23 -18 -60 -19 -218 -4
-220 -328 -2 -328 104 0 182 95 161 196 -5 23 -2 46 11 75 22 50 12 88 -27
103 -15 6 -27 10 -28 9 -1 0 -12 -4 -24 -9z m52 -60 c0 -18 -6 -26 -23 -28
-13 -2 -25 3 -28 12 -10 26 4 48 28 44 17 -2 23 -10 23 -28z m-158 -57 c-3 -2
-15 -3 -27 -1 l-22 3 24 30 23 30 3 -29 c2 -15 1 -30 -1 -33z m-49 22 c-8 -17
-19 -25 -37 -25 l-26 1 28 24 c36 32 50 32 35 0z m85 -5 c3 -11 1 -20 -4 -20
-5 0 -9 9 -9 20 0 11 2 20 4 20 2 0 6 -9 9 -20z m-105 -67 c-2 -23 -8 -29 -35
-31 -24 -2 -33 1 -33 12 0 32 13 46 42 46 26 0 29 -3 26 -27z m72 -3 c0 -27
-3 -30 -30 -30 -27 0 -30 3 -30 30 0 27 3 30 30 30 27 0 30 -3 30 -30z m64 8
c22 -32 20 -38 -14 -38 -27 0 -30 3 -30 30 0 36 22 40 44 8z m71 -26 c-3 -3
-11 0 -18 7 -9 10 -8 11 6 5 10 -3 15 -9 12 -12z m-207 -64 c3 -25 0 -28 -26
-28 -29 0 -42 14 -42 46 0 11 9 14 33 12 27 -2 33 -8 35 -30z m72 2 c0 -27 -3
-30 -30 -30 -27 0 -30 3 -30 30 0 27 3 30 30 30 27 0 30 -3 30 -30z m80 0 c0
-27 -3 -30 -30 -30 -27 0 -30 3 -30 30 0 27 3 30 30 30 27 0 30 -3 30 -30z
m63 18 c16 15 17 15 17 0 0 -34 -12 -48 -41 -48 -24 0 -29 4 -29 23 0 31 12
42 26 23 9 -13 12 -13 27 2z m-195 -93 c15 -32 1 -32 -35 0 l-28 24 26 1 c18
0 29 -8 37 -25z m52 -6 c0 -27 -2 -30 -16 -19 -8 8 -20 22 -25 32 -8 15 -6 18
16 18 21 0 25 -4 25 -31z m61 13 c-5 -10 -17 -24 -25 -32 -14 -11 -16 -8 -16
19 0 27 4 31 25 31 22 0 24 -3 16 -18z m46 -7 c-36 -32 -50 -32 -35 0 8 17 19
25 37 25 l26 -1 -28 -24z"/>
</g>
</svg>
